<svg data-v-423bf9ae="" xmlns="http://www.w3.org/2000/svg" viewBox="0 0 735 112" class="iconLeft"><!----><!----><!----><g data-v-423bf9ae="" id="6fa5ed0c-79c1-4007-8b35-674e68357a90" fill="#022239" transform="matrix(5.258545206169178,0,0,5.258545206169178,125.95675707927057,17.45641459585339)"><path d="M0.98 2.80L0.98 12.60L2.52 12.60L2.52 7.98L7.56 7.98L7.56 12.60L9.10 12.60L9.10 2.80L7.56 2.80L7.56 6.58L2.52 6.58L2.52 2.80ZM15.58 8.69L12.03 8.69C12.09 8.26 12.30 7.92 12.66 7.66C13.02 7.41 13.44 7.28 13.90 7.28C14.89 7.28 15.45 7.75 15.58 8.69ZM12.00 9.73L17.12 9.73C17.14 9.61 17.15 9.45 17.15 9.25C17.15 8.25 16.86 7.45 16.27 6.88C15.68 6.31 14.89 6.02 13.90 6.02C12.89 6.02 12.07 6.33 11.45 6.96C10.81 7.59 10.50 8.40 10.50 9.38C10.50 10.38 10.80 11.19 11.40 11.81C12.01 12.43 12.84 12.74 13.90 12.74C15.31 12.74 16.34 12.24 17.00 11.24L15.89 10.56C15.54 11.13 14.87 11.41 13.90 11.41C13.39 11.41 12.96 11.27 12.61 10.98C12.27 10.69 12.06 10.27 12.00 9.73ZM19.12 8.01C19.77 7.54 20.43 7.31 21.11 7.31C22.02 7.31 22.47 7.56 22.47 8.05L22.47 8.90C22.00 8.65 21.45 8.53 20.80 8.53C19.98 8.53 19.30 8.72 18.75 9.11C18.20 9.51 17.92 10.06 17.92 10.78C17.92 11.43 18.15 11.92 18.61 12.25C19.06 12.58 19.62 12.74 20.27 12.74C20.77 12.74 21.21 12.65 21.59 12.46C21.98 12.27 22.27 12.01 22.47 11.68L22.47 12.60L23.94 12.60L23.94 7.98C23.94 7.32 23.68 6.82 23.17 6.50C22.66 6.18 21.97 6.02 21.11 6.02C20.20 6.02 19.35 6.30 18.58 6.87ZM19.33 10.64C19.33 10.36 19.49 10.12 19.80 9.90C20.10 9.70 20.51 9.59 21 9.59C21.53 9.59 22.02 9.67 22.47 9.84L22.47 10.08C22.47 10.65 22.32 11.05 22.03 11.27C21.73 11.49 21.29 11.61 20.69 11.61C19.79 11.61 19.33 11.28 19.33 10.64ZM25.69 1.68L25.69 12.60L27.16 12.60L27.16 1.68ZM29.12 3.92L29.12 6.16L28.07 6.16L28.07 7.49L29.12 7.49L29.12 12.60L30.59 12.60L30.59 7.49L31.64 7.49L31.64 6.16L30.59 6.16L30.59 3.92ZM34.02 8.96C34.02 8.51 34.19 8.13 34.52 7.82C34.85 7.51 35.23 7.35 35.66 7.35C36.07 7.35 36.38 7.45 36.58 7.64C36.79 7.83 36.89 8.18 36.89 8.68L36.89 12.60L38.36 12.60L38.36 8.54C38.36 7.63 38.16 6.98 37.77 6.59C37.37 6.21 36.81 6.02 36.08 6.02C35.19 6.02 34.51 6.40 34.02 7.15L34.02 1.68L32.55 1.68L32.55 12.60L34.02 12.60ZM40.18 2.80L40.18 12.60L43.19 12.60C44.16 12.60 44.97 12.33 45.62 11.79C46.27 11.26 46.59 10.55 46.59 9.66C46.59 9.03 46.42 8.50 46.07 8.09C45.72 7.68 45.24 7.38 44.63 7.20C45.57 6.89 46.03 6.26 46.03 5.32C46.03 4.55 45.75 3.94 45.18 3.49C44.61 3.03 43.85 2.80 42.91 2.80ZM41.72 6.58L41.72 4.20L42.91 4.20C43.96 4.20 44.49 4.60 44.49 5.39C44.49 5.79 44.37 6.09 44.11 6.29C43.86 6.48 43.46 6.58 42.91 6.58ZM41.72 7.98L43.19 7.98C43.76 7.98 44.21 8.12 44.55 8.39C44.88 8.67 45.05 9.07 45.05 9.59C45.05 10.11 44.88 10.51 44.55 10.79C44.21 11.06 43.76 11.20 43.19 11.20L41.72 11.20ZM52.72 8.69L49.17 8.69C49.23 8.26 49.45 7.92 49.80 7.66C50.16 7.41 50.58 7.28 51.04 7.28C52.03 7.28 52.59 7.75 52.72 8.69ZM49.14 9.73L54.26 9.73C54.28 9.61 54.29 9.45 54.29 9.25C54.29 8.25 54.00 7.45 53.41 6.88C52.82 6.31 52.03 6.02 51.04 6.02C50.04 6.02 49.22 6.33 48.59 6.96C47.96 7.59 47.64 8.40 47.64 9.38C47.64 10.38 47.94 11.19 48.55 11.81C49.15 12.43 49.98 12.74 51.04 12.74C52.45 12.74 53.48 12.24 54.14 11.24L53.03 10.56C52.68 11.13 52.01 11.41 51.04 11.41C50.53 11.41 50.10 11.27 49.76 10.98C49.41 10.69 49.21 10.27 49.14 9.73ZM57.09 7.15L57.09 6.16L55.62 6.16L55.62 12.60L57.09 12.60L57.09 8.96C57.09 8.51 57.26 8.13 57.59 7.82C57.92 7.51 58.30 7.35 58.73 7.35C59.14 7.35 59.45 7.45 59.65 7.64C59.86 7.83 59.96 8.18 59.96 8.68L59.96 12.60L61.43 12.60L61.43 8.54C61.43 7.63 61.23 6.98 60.84 6.59C60.44 6.21 59.88 6.02 59.15 6.02C58.26 6.02 57.58 6.40 57.09 7.15ZM67.77 8.69L64.22 8.69C64.28 8.26 64.50 7.92 64.86 7.66C65.21 7.41 65.63 7.28 66.09 7.28C67.08 7.28 67.64 7.75 67.77 8.69ZM64.19 9.73L69.31 9.73C69.33 9.61 69.34 9.45 69.34 9.25C69.34 8.25 69.05 7.45 68.46 6.88C67.87 6.31 67.08 6.02 66.09 6.02C65.09 6.02 64.27 6.33 63.64 6.96C63.01 7.59 62.69 8.40 62.69 9.38C62.69 10.38 62.99 11.19 63.60 11.81C64.20 12.43 65.03 12.74 66.09 12.74C67.50 12.74 68.53 12.24 69.19 11.24L68.08 10.56C67.73 11.13 67.06 11.41 66.09 11.41C65.58 11.41 65.15 11.27 64.81 10.98C64.46 10.69 64.26 10.27 64.19 9.73ZM73.72 3.36L74.44 2.20C74.11 1.76 73.64 1.54 73.02 1.54C72.30 1.54 71.75 1.75 71.37 2.16C71.00 2.57 70.81 3.15 70.81 3.92L70.81 6.16L70.04 6.16L70.04 7.49L70.81 7.49L70.81 12.60L72.28 12.60L72.28 7.49L73.89 7.49L73.89 6.16L72.28 6.16L72.28 4.06C72.28 3.69 72.36 3.41 72.51 3.22C72.67 3.03 72.86 2.94 73.09 2.94C73.35 2.94 73.56 3.08 73.72 3.36ZM74.79 3.64C74.79 3.89 74.88 4.11 75.07 4.28C75.25 4.46 75.48 4.55 75.74 4.55C76.00 4.55 76.23 4.46 76.41 4.28C76.60 4.11 76.69 3.89 76.69 3.64C76.69 3.39 76.60 3.17 76.41 3.00C76.23 2.82 76.00 2.73 75.74 2.73C75.48 2.73 75.25 2.82 75.07 3.00C74.88 3.17 74.79 3.39 74.79 3.64ZM75.00 6.16L75.00 12.60L76.48 12.60L76.48 6.16ZM78.37 3.92L78.37 6.16L77.32 6.16L77.32 7.49L78.37 7.49L78.37 12.60L79.84 12.60L79.84 7.49L80.89 7.49L80.89 6.16L79.84 6.16L79.84 3.92ZM82.45 10.25L81.24 10.78C81.34 11.31 81.65 11.77 82.16 12.16C82.67 12.55 83.25 12.74 83.90 12.74C84.64 12.74 85.25 12.59 85.74 12.28C86.22 11.97 86.46 11.52 86.46 10.92C86.46 10.31 86.28 9.84 85.91 9.51C85.54 9.17 85.06 8.89 84.48 8.68C83.99 8.50 83.63 8.34 83.40 8.20C83.16 8.05 83.05 7.89 83.05 7.71C83.05 7.39 83.33 7.22 83.89 7.22C84.40 7.22 84.83 7.46 85.16 7.92L86.30 7.28C86.09 6.91 85.78 6.60 85.35 6.37C84.93 6.14 84.43 6.02 83.87 6.02C83.26 6.02 82.72 6.17 82.26 6.48C81.81 6.79 81.58 7.20 81.58 7.71C81.58 8.66 82.26 9.35 83.64 9.79C84.07 9.92 84.39 10.07 84.62 10.23C84.84 10.40 84.95 10.62 84.95 10.88C84.95 11.23 84.63 11.41 83.97 11.41C83.62 11.41 83.30 11.31 83.01 11.11C82.72 10.91 82.53 10.62 82.45 10.25ZM95.42 2.80L95.42 9.38L87.93 2.59L87.93 12.60L89.47 12.60L89.47 6.02L96.96 12.81L96.96 2.80ZM98.36 9.38C98.36 10.40 98.70 11.21 99.38 11.82C100.06 12.43 100.90 12.74 101.91 12.74C102.91 12.74 103.76 12.43 104.43 11.82C105.11 11.21 105.45 10.40 105.45 9.38C105.45 8.36 105.11 7.55 104.43 6.94C103.76 6.33 102.91 6.02 101.91 6.02C100.90 6.02 100.06 6.33 99.38 6.94C98.70 7.55 98.36 8.36 98.36 9.38ZM99.85 9.38C99.85 8.75 100.04 8.26 100.42 7.90C100.80 7.53 101.30 7.35 101.91 7.35C102.51 7.35 103.01 7.53 103.39 7.90C103.77 8.26 103.96 8.75 103.96 9.38C103.96 10.01 103.77 10.50 103.39 10.86C103.01 11.23 102.51 11.41 101.91 11.41C101.30 11.41 100.80 11.23 100.42 10.86C100.04 10.50 99.85 10.01 99.85 9.38ZM105.80 6.16L108.74 12.95L110.71 8.89L112.80 12.95L115.67 6.16L114.13 6.16L112.69 9.91L110.70 5.81L108.84 9.90L107.34 6.16Z"></path></g><defs data-v-423bf9ae=""><linearGradient data-v-423bf9ae="" gradientTransform="rotate(25)" id="9e4e8867-8472-4799-a011-73b313bf7cb1" x1="0%" y1="0%" x2="100%" y2="0%"><stop data-v-423bf9ae="" offset="0%" style="stop-color: rgb(0, 10, 104); stop-opacity: 1;"></stop><stop data-v-423bf9ae="" offset="100%" style="stop-color: rgb(0, 196, 238); stop-opacity: 1;"></stop></linearGradient></defs><g data-v-423bf9ae="" id="68e586f9-f2eb-4c77-8221-30c076588270" transform="matrix(1.1111012776692708,0,0,1.1111012776692708,0.4449361165364607,0.44542778427712904)" stroke="none" fill="url(#9e4e8867-8472-4799-a011-73b313bf7cb1)"><path d="M69.089 6.549c-3.158-2.588-5.352-1.979-8.516 3.662-2.09 3.73-5.417 4.18-7.455 4.066l.014-.746c2.363-1.175 4.029-3.558 4.029-6.367A7.16 7.16 0 0 0 50 0c-3.952 0-7.174 3.2-7.174 7.165 0 2.809 1.667 5.192 4.036 6.361l.007.752c-2.031.114-5.365-.335-7.455-4.066-3.151-5.641-5.352-6.25-8.502-3.662C27.741 9.141 15.241 24.079 0 22.708c0 0 3.021 6.859 11.256 5.339 0 0 4.401 4.567 11.543 1.37 0 0 3.711 3.347 9.616.303 0 0 4.388 3.353 9.069.456 0 0 2.643 1.914 5.58 1.419l.188 17.246c-.332-.065-.599-.143-.95-.205-.013-.006-5.117-1.1-10.515-2.614-5.195-1.361-10.898-3.568-11.738-4.717.072-.072.189-.127.339-.199.462-.244 1.25-.495 2.188-.687 1.907-.388 4.492-.586 7.09-.69 5.163-.186 6.094.039 6.185.056.007-.163 2.988.352 3.809-2.686-.032-.026.059-.15.007-.222-.169-2.09-1.777-2.194-3.093-2.438-2.135-.28-1.022-.169-3.899-.133-4.727.352-19.291-.827-21.126 6.839 0 .215-.013.352-.039.541.612 6.676 14.434 9.573 24.447 11.569-3.398 2.327-5.215 5.354-5.938 9.268-.345 4.173 2.969 8.145 10.664 12.584-5.847 4.141-9.688 8.027-9.375 12.722.547 3.828 3.926 8.945 10.566 12.168.02.007.026-.007.039 0h.02s-4.648-7.09-4.961-10.97c-.306-2.266.983-5.612 6.634-9.643l.163 14.18h.026c.039 1.205.97 2.168 2.142 2.168 1.171 0 2.103-.963 2.142-2.168h.02l.188-13.809c5.208 3.861 6.387 7.07 6.087 9.271-.312 3.88-4.954 10.97-4.954 10.97h.013s.014.007.046 0c6.634-3.223 10.02-8.34 10.56-12.168.312-4.694-3.528-8.581-9.368-12.722 7.688-4.439 11.009-8.411 10.664-12.584-.723-3.913-2.539-6.94-5.944-9.268 10.02-1.996 23.835-4.893 24.447-11.569a3.529 3.529 0 0 1-.039-.541c-1.83-7.666-16.4-6.487-21.127-6.839-2.877-.036-1.764-.146-3.899.133-1.315.244-2.923.348-3.093 2.438-.052.072.046.195.014.222.82 3.037 3.802 2.522 3.809 2.686.084-.017 1.016-.241 6.185-.056 2.591.104 5.176.303 7.083.69.944.192 1.719.442 2.188.687.15.072.273.127.346.199-.84 1.149-6.543 3.356-11.738 4.717-5.404 1.514-10.508 2.607-10.521 2.614-.13.026-.234.052-.364.075l.222-17.119c2.955.518 5.618-1.416 5.618-1.416 4.668 2.897 9.069-.456 9.069-.456 5.904 3.044 9.609-.303 9.609-.303 7.142 3.197 11.543-1.37 11.543-1.37C96.973 29.567 100 22.708 100 22.708 84.753 24.079 72.253 9.141 69.089 6.549zM43.268 67.711c-1.907-1.185-2.799-2.786-2.624-3.867.104-1.504-.417-5.091 6.699-7.702l.163 14.245c-1.373-.866-2.793-1.758-4.238-2.676zm15.43-3.867c.176 1.081-.717 2.683-2.624 3.867-1.25.801-2.474 1.562-3.672 2.317l.183-13.665c6.49 2.598 6.009 6.023 6.113 7.481z"></path></g><!----></svg>